<svg id="Layer_1" data-name="Layer 1" xmlns="http://www.w3.org/2000/svg" xmlns:xlink="http://www.w3.org/1999/xlink" viewBox="0 0 37.27 30.84"><defs><style>.cls-1,.cls-3,.cls-5{fill:#8a8c8c;}.cls-1,.cls-2{clip-rule:evenodd;}.cls-10,.cls-2,.cls-8{fill:#8a8b8b;}.cls-3,.cls-8{fill-rule:evenodd;}.cls-4{clip-path:url(#clip-path);}.cls-6{clip-path:url(#clip-path-2);}.cls-7{clip-path:url(#clip-path-3);}.cls-9{clip-path:url(#clip-path-4);}.cls-11{clip-path:url(#clip-path-5);}</style><clipPath id="clip-path"><path class="cls-1" d="M33.37,22.93H3.4a1,1,0,1,0,0,2h30a1,1,0,1,0,0-2"/></clipPath><clipPath id="clip-path-2"><path class="cls-1" d="M33.37,14H3.4a1,1,0,1,0,0,2h30a1,1,0,1,0,0-2"/></clipPath><clipPath id="clip-path-3"><path class="cls-1" d="M33.37,5H3.4a1,1,0,1,0,0,2h30a1,1,0,1,0,0-2"/></clipPath><clipPath id="clip-path-4"><path class="cls-2" d="M83.27,25.9L62.08,4.72a1,1,0,1,0-1.44,1.44L81.83,27.34a1,1,0,1,0,1.44-1.44"/></clipPath><clipPath id="clip-path-5"><path class="cls-2" d="M62.08,27.34L83.27,6.15a1,1,0,1,0-1.44-1.44L60.65,25.9a1,1,0,1,0,1.44,1.44"/></clipPath></defs><title>icon</title><path class="cls-3" d="M33.37,22.93H3.4a1,1,0,1,0,0,2h30a1,1,0,1,0,0-2"/><g class="cls-4"><rect class="cls-5" x="-415.62" y="-19.99" width="480" height="7245"/></g><path class="cls-3" d="M33.37,14H3.4a1,1,0,1,0,0,2h30a1,1,0,1,0,0-2"/><g class="cls-6"><rect class="cls-5" x="-415.62" y="-19.99" width="480" height="7245"/></g><path class="cls-3" d="M33.37,5H3.4a1,1,0,1,0,0,2h30a1,1,0,1,0,0-2"/><g class="cls-7"><rect class="cls-5" x="-415.62" y="-19.99" width="480" height="7245"/></g><path class="cls-8" d="M83.27,25.9L62.08,4.72a1,1,0,1,0-1.44,1.44L81.83,27.34a1,1,0,1,0,1.44-1.44"/><g class="cls-9"><rect class="cls-10" x="-373.04" y="-19.99" width="480" height="800"/></g><path class="cls-8" d="M62.08,27.34L83.27,6.15a1,1,0,1,0-1.44-1.44L60.65,25.9a1,1,0,1,0,1.44,1.44"/><g class="cls-11"><rect class="cls-10" x="-373.04" y="-19.99" width="480" height="800"/></g></svg>