<svg id="Layer_1" data-name="Layer 1" xmlns="http://www.w3.org/2000/svg" xmlns:xlink="http://www.w3.org/1999/xlink" viewBox="0 0 34.47 30.84"><defs><style>.cls-1,.cls-3,.cls-5{fill:#8a8c8c;}.cls-1,.cls-2{clip-rule:evenodd;}.cls-10,.cls-2,.cls-8{fill:#8a8b8b;}.cls-3,.cls-8{fill-rule:evenodd;}.cls-4{clip-path:url(#clip-path);}.cls-6{clip-path:url(#clip-path-2);}.cls-7{clip-path:url(#clip-path-3);}.cls-9{clip-path:url(#clip-path-4);}.cls-11{clip-path:url(#clip-path-5);}</style><clipPath id="clip-path"><path class="cls-1" d="M-21.42,22.93h-30a1,1,0,0,0-1,1,1,1,0,0,0,1,1h30a1,1,0,0,0,1-1,1,1,0,0,0-1-1"/></clipPath><clipPath id="clip-path-2"><path class="cls-1" d="M-21.42,14h-30a1,1,0,0,0-1,1,1,1,0,0,0,1,1h30a1,1,0,0,0,1-1,1,1,0,0,0-1-1"/></clipPath><clipPath id="clip-path-3"><path class="cls-1" d="M-21.42,5h-30a1,1,0,0,0-1,1,1,1,0,0,0,1,1h30a1,1,0,0,0,1-1,1,1,0,0,0-1-1"/></clipPath><clipPath id="clip-path-4"><path class="cls-2" d="M28.48,25.9L7.29,4.72A1,1,0,1,0,5.86,6.15L27,27.34a1,1,0,1,0,1.44-1.44"/></clipPath><clipPath id="clip-path-5"><path class="cls-2" d="M7.29,27.34L28.48,6.15A1,1,0,1,0,27,4.72L5.86,25.9a1,1,0,1,0,1.44,1.44"/></clipPath></defs><title>icon</title><path class="cls-3" d="M-21.42,22.93h-30a1,1,0,0,0-1,1,1,1,0,0,0,1,1h30a1,1,0,0,0,1-1,1,1,0,0,0-1-1"/><g class="cls-4"><rect class="cls-5" x="-470.4" y="-19.99" width="480" height="7245"/></g><path class="cls-3" d="M-21.42,14h-30a1,1,0,0,0-1,1,1,1,0,0,0,1,1h30a1,1,0,0,0,1-1,1,1,0,0,0-1-1"/><g class="cls-6"><rect class="cls-5" x="-470.4" y="-19.99" width="480" height="7245"/></g><path class="cls-3" d="M-21.42,5h-30a1,1,0,0,0-1,1,1,1,0,0,0,1,1h30a1,1,0,0,0,1-1,1,1,0,0,0-1-1"/><g class="cls-7"><rect class="cls-5" x="-470.4" y="-19.99" width="480" height="7245"/></g><path class="cls-8" d="M28.48,25.9L7.29,4.72A1,1,0,1,0,5.86,6.15L27,27.34a1,1,0,1,0,1.44-1.44"/><g class="cls-9"><rect class="cls-10" x="-427.83" y="-19.99" width="480" height="800"/></g><path class="cls-8" d="M7.29,27.34L28.48,6.15A1,1,0,1,0,27,4.72L5.86,25.9a1,1,0,1,0,1.44,1.44"/><g class="cls-11"><rect class="cls-10" x="-427.83" y="-19.99" width="480" height="800"/></g></svg>