<svg id="Layer_1" data-name="Layer 1" xmlns="http://www.w3.org/2000/svg" viewBox="0 0 327 99.98"><defs><style>.cls-1{fill:#fff;}</style></defs><title>Logo_white</title><path class="cls-1" d="M211.34,10.16V8.22a1.15,1.15,0,0,0-1.15-1.15H164.33a1.15,1.15,0,0,0-1.15,1.15v1.94a1.15,1.15,0,0,0,1.15,1.15H185.1V76.76a1.15,1.15,0,0,0,1.15,1.15h2a1.15,1.15,0,0,0,1.15-1.15V11.31h20.78A1.15,1.15,0,0,0,211.34,10.16Z" transform="translate(0 -2.42)"/><path class="cls-1" d="M242.5,72c-0.15-1.86-.22-3.64-0.22-5.28V47.14c0-5.92-1.51-10.35-4.5-13.18s-7-4.24-12.12-4.24A22,22,0,0,0,211,35.55a1.15,1.15,0,0,0-.18,1.48L212,38.68a1.15,1.15,0,0,0,1.75.2,19.54,19.54,0,0,1,5.46-3.66,15.72,15.72,0,0,1,6.49-1.35,12.76,12.76,0,0,1,9,3.13c2.23,2.05,3.36,5.43,3.36,10v2.43h-6.13a61.55,61.55,0,0,0-7.37.49,26,26,0,0,0-7.76,2.18,16.92,16.92,0,0,0-6.2,4.83,13.05,13.05,0,0,0-2.57,8.37,13.65,13.65,0,0,0,1.35,6.23,12.7,12.7,0,0,0,3.55,4.36,15.3,15.3,0,0,0,4.87,2.51,18.06,18.06,0,0,0,15.58-2.32,15.51,15.51,0,0,0,4.93-5.35q0,0.41.07,0.82,0.13,1.49.22,2.87a20.89,20.89,0,0,0,.29,2.51,1.15,1.15,0,0,0,1.13.94h1.91A1.15,1.15,0,0,0,243,76.59C242.82,75.39,242.65,73.84,242.5,72Zm-19.39,3.15a14.4,14.4,0,0,1-3.75-.54,11.16,11.16,0,0,1-3.55-1.67,8.62,8.62,0,0,1-2.57-3,9.62,9.62,0,0,1-1-4.63,9.37,9.37,0,0,1,1.79-6,12.29,12.29,0,0,1,4.79-3.54A24,24,0,0,1,225.52,54a63.51,63.51,0,0,1,7.15-.43H238v3.11a31.4,31.4,0,0,1-.7,6.49,17.33,17.33,0,0,1-2.43,5.9A13.11,13.11,0,0,1,223.11,75.13Z" transform="translate(0 -2.42)"/><path class="cls-1" d="M279.36,55.81h0A18.31,18.31,0,0,0,275,53.38a48.25,48.25,0,0,0-4.92-1.64c-1.71-.44-3.3-0.9-4.75-1.38a13.65,13.65,0,0,1-3.44-1.65,6.14,6.14,0,0,1-2-2.37,9.47,9.47,0,0,1-.74-4.13,7.5,7.5,0,0,1,3.19-6.46,9.52,9.52,0,0,1,3.13-1.42,13.77,13.77,0,0,1,3.36-.45,12.36,12.36,0,0,1,5.83,1.27,13,13,0,0,1,4.34,4,1.16,1.16,0,0,0,1.54.31l1.73-1.07a1.15,1.15,0,0,0,.36-1.61c-3.07-4.65-7.71-7-13.79-7a16.83,16.83,0,0,0-5,.78,14.35,14.35,0,0,0-4.5,2.32A11.56,11.56,0,0,0,256,36.74a12.08,12.08,0,0,0-1.22,5.56,13,13,0,0,0,1,5.31,10.36,10.36,0,0,0,2.66,3.64,13.72,13.72,0,0,0,3.82,2.33,46.21,46.21,0,0,0,4.41,1.55c1.37,0.38,2.88.82,4.48,1.3a19.57,19.57,0,0,1,4.17,1.78A9,9,0,0,1,278.26,61a7.71,7.71,0,0,1,1.12,4.39,8.93,8.93,0,0,1-.92,4.12,9.29,9.29,0,0,1-2.43,3,10.69,10.69,0,0,1-3.37,1.84,11.72,11.72,0,0,1-3.69.62c-5.34,0-9.32-2-12.15-6.27a1.16,1.16,0,0,0-.75-0.49,1.13,1.13,0,0,0-.87.19l-1.64,1.16a1.15,1.15,0,0,0-.29,1.58,17.25,17.25,0,0,0,6.68,6,19.78,19.78,0,0,0,8.93,2,16.89,16.89,0,0,0,5.66-.94,14.23,14.23,0,0,0,4.7-2.74,13.12,13.12,0,0,0,3.24-4.4,13.9,13.9,0,0,0,1.2-5.85,12.1,12.1,0,0,0-1.17-5.56A11.11,11.11,0,0,0,279.36,55.81Z" transform="translate(0 -2.42)"/><path class="cls-1" d="M326.65,75.94L302.86,52.87l21.23-19.79a1.15,1.15,0,0,0-.79-2h-2.82a1.14,1.14,0,0,0-.79.32L299.88,50.16V3.58a1.15,1.15,0,0,0-1.15-1.15h-2a1.15,1.15,0,0,0-1.15,1.15V76.76a1.15,1.15,0,0,0,1.15,1.15h2a1.15,1.15,0,0,0,1.15-1.15V55.89L322,77.59a1.14,1.14,0,0,0,.81.33h3A1.15,1.15,0,0,0,326.65,75.94Zm-0.4.41h0Z" transform="translate(0 -2.42)"/><path class="cls-1" d="M104,30.79h-2a1.44,1.44,0,0,0-1.44,1.44V39a21,21,0,0,0-17.67-9.57,21.07,21.07,0,0,0-16.15,7.27,24.73,24.73,0,0,0-4.59,8,29.38,29.38,0,0,0-1.63,9.87,29,29,0,0,0,1.63,9.83,24.26,24.26,0,0,0,4.6,7.92,21.66,21.66,0,0,0,22.43,6.28,20.63,20.63,0,0,0,5.72-2.76,22.82,22.82,0,0,0,4.76-4.44q0.47-.58.9-1.2v3.83a48.28,48.28,0,0,1-.84,9.07,23,23,0,0,1-2.78,7.52,14.63,14.63,0,0,1-5.23,5.11,16.47,16.47,0,0,1-8.37,1.93,21.92,21.92,0,0,1-8.67-1.77,19.61,19.61,0,0,1-7.33-5.65,1.44,1.44,0,0,0-2.16-.07l-1.36,1.45a1.44,1.44,0,0,0-.06,1.9,24.14,24.14,0,0,0,8.42,6.53,26.1,26.1,0,0,0,11.17,2.31A21.57,21.57,0,0,0,93.82,100a19.18,19.18,0,0,0,6.88-6.33,26.59,26.59,0,0,0,3.66-9,49.67,49.67,0,0,0,1.08-10.47v-42A1.44,1.44,0,0,0,104,30.79ZM82.88,34.16a15.68,15.68,0,0,1,7,1.59,17.89,17.89,0,0,1,5.6,4.35,20.87,20.87,0,0,1,3.74,6.48,23.65,23.65,0,0,1,0,15.85A21.48,21.48,0,0,1,95.53,69a17.59,17.59,0,0,1-5.6,4.39,15.67,15.67,0,0,1-7,1.59,16.08,16.08,0,0,1-7.23-1.59A16.6,16.6,0,0,1,70.16,69a20.32,20.32,0,0,1-3.52-6.51,25.49,25.49,0,0,1,0-15.74,20.33,20.33,0,0,1,3.52-6.51,17.17,17.17,0,0,1,5.5-4.42A15.7,15.7,0,0,1,82.88,34.16Z" transform="translate(0 -2.42)"/><path class="cls-1" d="M141.32,29.56h0a5.47,5.47,0,0,0-1.11-.13h-0.82A15.34,15.34,0,0,0,126,37.32q0-1.45-.08-2.71c0-1-.08-1.84-0.14-2.5a1.43,1.43,0,0,0-1.43-1.31h-2a1.44,1.44,0,0,0-1.43,1.57q0.09,1,.18,2.38c0.06,1,.1,2,0.13,3s0.06,2.12.09,3.15,0,1.87,0,2.57v33.3a1.44,1.44,0,0,0,1.44,1.44h2a1.44,1.44,0,0,0,1.44-1.44v-23a32.68,32.68,0,0,1,.8-7.28,20.73,20.73,0,0,1,2.55-6.17,13.89,13.89,0,0,1,4.21-4.48,10.63,10.63,0,0,1,6-1.64h0.5a1.29,1.29,0,0,1,.32.05,1.44,1.44,0,0,0,1.8-1.39V31A1.45,1.45,0,0,0,141.32,29.56Z" transform="translate(0 -2.42)"/><rect class="cls-1" x="149.96" y="28.37" width="4.88" height="47.41" rx="1.44" ry="1.44"/><circle class="cls-1" cx="152.3" cy="20.02" r="3.15"/><path class="cls-1" d="M28.41,51.9c-0.91-.15-1.78-0.29-2.6-0.46l-1.48-.3a52.82,52.82,0,0,1-7-1.74c-5.8-2-7.8-4.65-7.88-4.76a0.56,0.56,0,0,1,.77-0.78,24,24,0,0,0,7.22,3.42,64.34,64.34,0,0,0,7.14,1.25c1.38,0.19,2.81.38,4.22,0.63l1,0.16c3.27,0.55,6.81,1.16,9.7,3.32A10.9,10.9,0,0,0,32.09,42c-8.06-3.81-16.24-1.08-24-2.77a11.59,11.59,0,0,1-6.29-3.35S7.31,56.58,25.44,60.53c2.85,0.62,9.85.82,12.24-2.11a6,6,0,0,0,1.39-2.23C36.3,53.21,32.16,52.52,28.41,51.9Z" transform="translate(0 -2.42)"/><path class="cls-1" d="M8.93,55.07L0.1,76.2a1.12,1.12,0,0,0,.07,1.07,1.12,1.12,0,0,0,1,.48H3.46a1.89,1.89,0,0,0,1.66-1.11l7.15-17.28,0.41-1A30,30,0,0,1,8.93,55.07Z" transform="translate(0 -2.42)"/><path class="cls-1" d="M57.73,76.21L33.64,9.85A1.82,1.82,0,0,0,32,8.7h-2.5a1.9,1.9,0,0,0-1.66,1.11L16.27,37.51h1.34c1.2,0,2.41,0,3.64,0l9.34-22.74L45.51,56.32c0.15,0.42.38,1.1,0.52,1.53l0.1,0.3c0.14,0.43.38,1.14,0.53,1.57L52.74,76.6a1.81,1.81,0,0,0,1.63,1.15h2.28A1.11,1.11,0,0,0,57.73,76.21Z" transform="translate(0 -2.42)"/></svg>