<svg id="Layer_1" data-name="Layer 1" xmlns="http://www.w3.org/2000/svg" viewBox="0 0 325.57 99.54"><defs><style>.cls-1{fill:#818282;}.cls-2{fill:#599b32;}.cls-3{fill:#355624;}</style></defs><title>Logo</title><path class="cls-1" d="M211.41,10.13V8.2a1.15,1.15,0,0,0-1.15-1.15H164.6a1.15,1.15,0,0,0-1.15,1.15v1.93a1.15,1.15,0,0,0,1.15,1.15h20.69V76.44a1.15,1.15,0,0,0,1.15,1.15h2a1.15,1.15,0,0,0,1.15-1.15V11.27h20.69A1.15,1.15,0,0,0,211.41,10.13Z" transform="translate(-0.99 -2.43)"/><path class="cls-1" d="M242.44,71.67c-0.15-1.85-.22-3.62-0.22-5.26V46.95c0-5.89-1.51-10.31-4.48-13.12s-7-4.22-12.07-4.22a21.86,21.86,0,0,0-14.55,5.8,1.14,1.14,0,0,0-.17,1.47L212,38.52a1.15,1.15,0,0,0,1.75.2,19.46,19.46,0,0,1,5.43-3.64,15.65,15.65,0,0,1,6.46-1.34,12.71,12.71,0,0,1,8.92,3.12c2.22,2,3.35,5.41,3.35,10v2.42h-6.1a61.28,61.28,0,0,0-7.34.49,25.89,25.89,0,0,0-7.72,2.17,16.85,16.85,0,0,0-6.17,4.81A13,13,0,0,0,208,65.07a13.59,13.59,0,0,0,1.35,6.21,12.64,12.64,0,0,0,3.54,4.34,15.24,15.24,0,0,0,4.85,2.5,18,18,0,0,0,15.51-2.31,15.44,15.44,0,0,0,4.91-5.33q0,0.41.07,0.82,0.13,1.48.22,2.86a20.8,20.8,0,0,0,.29,2.5,1.15,1.15,0,0,0,1.13.93h1.9a1.15,1.15,0,0,0,1.13-1.32C242.75,75.07,242.58,73.52,242.44,71.67Zm-19.31,3.14a14.34,14.34,0,0,1-3.73-.54,11.11,11.11,0,0,1-3.53-1.66,8.58,8.58,0,0,1-2.56-2.94,9.57,9.57,0,0,1-1-4.61,9.33,9.33,0,0,1,1.78-6,12.23,12.23,0,0,1,4.77-3.52,23.92,23.92,0,0,1,6.66-1.7,63.24,63.24,0,0,1,7.12-.43h5.29v3.09a31.27,31.27,0,0,1-.7,6.46,17.25,17.25,0,0,1-2.42,5.88A13,13,0,0,1,223.13,74.81Z" transform="translate(-0.99 -2.43)"/><path class="cls-1" d="M279.13,55.58h0a18.23,18.23,0,0,0-4.35-2.42,48,48,0,0,0-4.89-1.64c-1.7-.43-3.29-0.9-4.72-1.37a13.59,13.59,0,0,1-3.43-1.64,6.11,6.11,0,0,1-2-2.36A9.43,9.43,0,0,1,259,42a7.46,7.46,0,0,1,3.18-6.43,9.48,9.48,0,0,1,3.11-1.42,13.71,13.71,0,0,1,3.34-.45,12.3,12.3,0,0,1,5.8,1.26,12.92,12.92,0,0,1,4.32,3.95,1.15,1.15,0,0,0,1.53.31L282,38.19a1.15,1.15,0,0,0,.36-1.61c-3.05-4.63-7.67-7-13.73-7a16.76,16.76,0,0,0-5,.78,14.28,14.28,0,0,0-4.48,2.31,11.51,11.51,0,0,0-3.22,3.9,12,12,0,0,0-1.21,5.54,13,13,0,0,0,1,5.29A10.32,10.32,0,0,0,258.3,51a13.66,13.66,0,0,0,3.8,2.32,46,46,0,0,0,4.39,1.54c1.37,0.38,2.87.81,4.46,1.29A19.49,19.49,0,0,1,275.1,58,9,9,0,0,1,278,60.7a7.67,7.67,0,0,1,1.12,4.37,8.89,8.89,0,0,1-.91,4.1,9.25,9.25,0,0,1-2.42,3A10.64,10.64,0,0,1,272.46,74a11.67,11.67,0,0,1-3.67.62c-5.32,0-9.28-2-12.09-6.24a1.15,1.15,0,0,0-.75-0.49,1.13,1.13,0,0,0-.87.19l-1.63,1.16a1.14,1.14,0,0,0-.29,1.57,17.17,17.17,0,0,0,6.65,5.93,19.69,19.69,0,0,0,8.89,2,16.82,16.82,0,0,0,5.64-.93A14.17,14.17,0,0,0,279,75.08a13.06,13.06,0,0,0,3.23-4.38,13.84,13.84,0,0,0,1.19-5.83,12.05,12.05,0,0,0-1.17-5.54A11.06,11.06,0,0,0,279.13,55.58Z" transform="translate(-0.99 -2.43)"/><path class="cls-1" d="M326.21,75.62l-23.69-23,21.13-19.71a1.15,1.15,0,0,0-.78-2h-2.81a1.14,1.14,0,0,0-.79.31L299.56,50V3.57a1.15,1.15,0,0,0-1.15-1.15h-2a1.15,1.15,0,0,0-1.15,1.15V76.44a1.15,1.15,0,0,0,1.15,1.15h2a1.15,1.15,0,0,0,1.15-1.15V55.66l22.06,21.6a1.14,1.14,0,0,0,.8.33h3A1.15,1.15,0,0,0,326.21,75.62Zm-0.4.41h0Z" transform="translate(-0.99 -2.43)"/><path class="cls-2" d="M104.53,30.67h-2a1.43,1.43,0,0,0-1.43,1.43v6.75a20.9,20.9,0,0,0-17.59-9.53,21,21,0,0,0-16.08,7.24,24.63,24.63,0,0,0-4.57,8,29.26,29.26,0,0,0-1.62,9.83,28.84,28.84,0,0,0,1.62,9.79A24.15,24.15,0,0,0,67.44,72a21.56,21.56,0,0,0,22.33,6.26,20.54,20.54,0,0,0,5.7-2.75,22.72,22.72,0,0,0,4.74-4.42q0.47-.58.9-1.2v3.81a48.07,48.07,0,0,1-.83,9,22.85,22.85,0,0,1-2.77,7.48,14.56,14.56,0,0,1-5.2,5.09A16.4,16.4,0,0,1,84,97.27a21.83,21.83,0,0,1-8.63-1.76A19.53,19.53,0,0,1,68,89.89a1.43,1.43,0,0,0-2.15-.07l-1.36,1.45a1.44,1.44,0,0,0-.06,1.89,24,24,0,0,0,8.38,6.51A26,26,0,0,0,84,102,21.48,21.48,0,0,0,94.4,99.62a19.09,19.09,0,0,0,6.85-6.3,26.48,26.48,0,0,0,3.64-9A49.45,49.45,0,0,0,106,73.93V32.1A1.43,1.43,0,0,0,104.53,30.67ZM83.51,34a15.61,15.61,0,0,1,7,1.58,17.81,17.81,0,0,1,5.58,4.33,20.78,20.78,0,0,1,3.73,6.45,23.55,23.55,0,0,1,0,15.78,21.38,21.38,0,0,1-3.73,6.51A17.51,17.51,0,0,1,90.53,73a15.6,15.6,0,0,1-7,1.59A16,16,0,0,1,76.31,73a16.52,16.52,0,0,1-5.46-4.35,20.23,20.23,0,0,1-3.51-6.48,25.37,25.37,0,0,1,0-15.67A20.24,20.24,0,0,1,70.85,40a17.1,17.1,0,0,1,5.48-4.4A15.63,15.63,0,0,1,83.51,34Z" transform="translate(-0.99 -2.43)"/><path class="cls-2" d="M141.7,29.45h0a5.45,5.45,0,0,0-1.11-.13h-0.82a15.27,15.27,0,0,0-13.3,7.85q0-1.44-.08-2.7c0-1-.08-1.83-0.14-2.49a1.43,1.43,0,0,0-1.43-1.3h-2a1.43,1.43,0,0,0-1.43,1.57q0.09,0.95.18,2.37c0.06,1,.1,2,0.13,3s0.06,2.11.09,3.13,0,1.87,0,2.56V76.44a1.43,1.43,0,0,0,1.43,1.43h2a1.43,1.43,0,0,0,1.43-1.43V53.5a32.54,32.54,0,0,1,.79-7.24A20.63,20.63,0,0,1,130,40.11a13.83,13.83,0,0,1,4.19-4.46,10.58,10.58,0,0,1,6-1.64h0.5a1.28,1.28,0,0,1,.32,0,1.43,1.43,0,0,0,1.8-1.39V30.85A1.44,1.44,0,0,0,141.7,29.45Z" transform="translate(-0.99 -2.43)"/><rect class="cls-2" x="149.31" y="28.24" width="4.86" height="47.2" rx="1.43" ry="1.43"/><circle class="cls-2" cx="151.64" cy="19.94" r="3.13"/><path class="cls-3" d="M33,59.92c-20.44,1.32-28.63-19.7-30-23.85a0.77,0.77,0,0,1-.12-0.2s2.9,19.54,21,24.75c9.46,2.72,15.52-.78,16.21-5.32a1.2,1.2,0,0,0-1.07,0C38.2,57.91,37.15,59.06,33,59.92Z" transform="translate(-0.99 -2.43)"/><path class="cls-2" d="M32.94,41.8C24.92,38,16.77,40.72,9,39A11.54,11.54,0,0,1,2.76,35.7S8.27,56.35,26.32,60.27c2.84,0.62,9.81.81,12.18-2.1A5.27,5.27,0,0,0,40,55.37C40.5,52.71,41.22,45.11,32.94,41.8Z" transform="translate(-0.99 -2.43)"/><path class="cls-3" d="M18.43,48.67a66.34,66.34,0,0,0,8.37,2c5.33,1.1,12.89,1.1,15.74,8.51,0.6,1.57,2.12.93,1.51-.66-2.87-7.46-9-8.07-14.47-9-3.83-.67-7.64-0.93-11.36-1.88a24.28,24.28,0,0,1-7.38-3.5S12.74,46.67,18.43,48.67Z" transform="translate(-0.99 -2.43)"/><path class="cls-2" d="M9.88,54.84l-8.79,21a1.12,1.12,0,0,0,.07,1.07,1.12,1.12,0,0,0,1,.48H4.43a1.88,1.88,0,0,0,1.65-1.11l7.12-17.21,0.41-1A29.91,29.91,0,0,1,9.88,54.84Z" transform="translate(-0.99 -2.43)"/><path class="cls-2" d="M58.47,75.89l-24-66.07a1.81,1.81,0,0,0-1.63-1.14H30.37a1.89,1.89,0,0,0-1.66,1.1L17.19,37.36h1.33c1.2,0,2.4,0,3.62,0l9.3-22.64L46.3,56.08c0.15,0.42.38,1.1,0.52,1.52l0.1,0.3c0.14,0.43.38,1.13,0.53,1.56L53.5,76.28a1.81,1.81,0,0,0,1.63,1.14H57.4A1.1,1.1,0,0,0,58.47,75.89Z" transform="translate(-0.99 -2.43)"/></svg>